<svg width="28" height="28" viewBox="0 0 28 28" fill="none" xmlns="http://www.w3.org/2000/svg">
<g clip-path="url(#clip0_667_224)">
<path fill-rule="evenodd" clip-rule="evenodd" d="M7 0C7.53043 0 8.03914 0.210714 8.41421 0.585786C8.78929 0.960859 9 1.46957 9 2V4H19V2C19 1.46957 19.2107 0.960859 19.5858 0.585786C19.9609 0.210714 20.4696 0 21 0C21.5304 0 22.0391 0.210714 22.4142 0.585786C22.7893 0.960859 23 1.46957 23 2V4H25C25.7956 4 26.5587 4.31607 27.1213 4.87868C27.6839 5.44129 28 6.20435 28 7V9H0V7C0 6.20435 0.31607 5.44129 0.87868 4.87868C1.44129 4.31607 2.20435 4 3 4H5V2C5 1.46957 5.21071 0.960859 5.58579 0.585786C5.96086 0.210714 6.46957 0 7 0Z" fill="#747D8A"/>
<path d="M0 9H28V25C28 25.7956 27.6839 26.5587 27.1213 27.1213C26.5587 27.6839 25.7956 28 25 28H3C2.20435 28 1.44129 27.6839 0.87868 27.1213C0.31607 26.5587 0 25.7956 0 25L0 9Z" fill="#D5D7DB"/>
<path fill-rule="evenodd" clip-rule="evenodd" d="M17.1261 11.6459C17.0796 11.5994 17.0244 11.5624 16.9637 11.5372C16.903 11.512 16.8378 11.499 16.7721 11.499C16.7063 11.499 16.6412 11.512 16.5804 11.5372C16.5197 11.5624 16.4645 11.5994 16.4181 11.6459L8.17206 19.9099C8.09586 19.9869 8.04673 20.0866 8.03206 20.1939L7.50406 23.9299C7.49309 24.0066 7.5001 24.0848 7.52453 24.1584C7.54896 24.2319 7.59015 24.2987 7.64484 24.3536C7.69954 24.4085 7.76624 24.4499 7.83969 24.4746C7.91313 24.4993 7.99132 24.5066 8.06806 24.4959L11.8041 23.9859C11.9121 23.9717 12.0125 23.9225 12.0901 23.8459L20.3541 15.5819C20.4006 15.5355 20.4376 15.4803 20.4628 15.4196C20.488 15.3588 20.501 15.2937 20.501 15.2279C20.501 15.1621 20.488 15.097 20.4628 15.0363C20.4376 14.9755 20.4006 14.9204 20.3541 14.8739L17.1261 11.6459Z" fill="#747D8A"/>
</g>
<defs>
<clipPath id="clip0_667_224">
<rect width="28" height="28" fill="white"/>
</clipPath>
</defs>
</svg>
