<svg width="42" height="42" viewBox="0 0 42 42" fill="none" xmlns="http://www.w3.org/2000/svg">
<path d="M31.3654 13H11.202C8.83623 13 6.84525 14.7753 6.87972 17.1408C7.00086 25.4539 9.46431 38 15.4195 38C18.9839 38 20.6611 35.5791 21.3103 33.5307C21.3923 33.272 22.0086 33.2487 22.102 33.5035C23.2216 36.5587 25.3761 38 27.0031 38C33.8059 38 35.695 26.1438 35.8624 17.4311C35.9101 14.9475 33.8495 13 31.3654 13Z" fill="#747D8A"/>
<circle cx="0.937499" cy="0.937499" r="0.937499" transform="matrix(-1 0 0 1 31.75 17.25)" fill="#FAFAFA"/>
<path d="M28 21.9373C27.2969 22.1716 25.6563 22.2185 24.7188 20.531" stroke="#FAFAFA" stroke-width="1.16667" stroke-linecap="round"/>
<circle cx="0.937499" cy="0.937499" r="0.937499" transform="matrix(-1 0 0 1 27.5312 17.25)" fill="#FAFAFA"/>
<path d="M16.2725 4.46642C20.0552 6.2146 25.801 6.68101 28.3419 6.40419C30.0065 6.22284 30.8534 8.95124 28.7654 10.0029C25.4947 11.6502 16.2725 11.1102 13.5198 9.44926C10.7671 7.78831 11.794 2.39667 16.2725 4.46642Z" fill="#747D8A"/>
</svg>
