<svg width="59" height="65" viewBox="0 0 59 65" fill="none" xmlns="http://www.w3.org/2000/svg">
<path d="M9.67434 20.1284L6.27244 15.2069C5.88925 14.6525 6.42027 13.9257 7.06486 14.1223L16.0362 16.8586C16.6808 17.0552 16.7159 17.9546 16.0885 18.2007L10.5191 20.386C10.2118 20.5066 9.86201 20.3999 9.67434 20.1284Z" fill="#6EDBB5"/>
<path d="M17.7239 22.5835L14.322 17.6619C13.9388 17.1076 14.4698 16.3808 15.1144 16.5774L24.0858 19.3136C24.7304 19.5102 24.7654 20.4096 24.1381 20.6558L18.5686 22.8411C18.2614 22.9617 17.9116 22.855 17.7239 22.5835Z" fill="#6EDBB5"/>
<path d="M25.7737 25.0386L22.3718 20.117C21.9886 19.5627 22.5196 18.8359 23.1642 19.0325L32.1356 21.7687C32.7802 21.9653 32.8152 22.8647 32.1879 23.1109L26.6184 25.2962C26.3112 25.4167 25.9614 25.31 25.7737 25.0386Z" fill="#6EDBB5"/>
<path d="M22.6476 33.373L19.0793 38.1752C18.6773 38.7161 19.1832 39.4606 19.8341 39.2862L28.8939 36.8586C29.5448 36.6842 29.6106 35.7866 28.9921 35.5191L23.5007 33.1444C23.1977 33.0134 22.8445 33.1081 22.6476 33.373Z" fill="#6EDBB5"/>
<path d="M30.7768 31.1948L27.2084 35.997C26.8065 36.5379 27.3123 37.2824 27.9633 37.108L37.023 34.6804C37.674 34.506 37.7398 33.6083 37.1212 33.3408L31.6298 30.9662C31.3269 30.8352 30.9736 30.9298 30.7768 31.1948Z" fill="#6EDBB5"/>
<path d="M43.3394 10.772L5.82272 0.771973C3.92794 0.771973 0.517284 2.27052 0.517334 8.30284C0.517365 12.0002 4.49985 14.5002 7.33855 15.4572L38.034 25.4572C38.034 29.9757 34.1794 40.8847 32.7286 45.0374C30.7221 50.7809 21.3887 64.9942 32.7286 64.9942C46.3918 64.9942 52.0554 31.1053 52.0554 20.9386C52.0554 12.8053 46.2447 10.772 43.3394 10.772Z" fill="#C8F1E3"/>
<ellipse cx="3.58903" cy="3.56623" rx="3.58903" ry="3.56623" transform="matrix(0.959198 0.282736 -0.286715 0.958016 28.0449 11)" fill="white"/>
<ellipse cx="2.28128" cy="2.26679" rx="2.28128" ry="2.26679" transform="matrix(0.959198 0.282736 -0.286715 0.958016 28.9268 12.6147)" fill="#6EDBB5"/>
<rect x="8.81323" y="40.3926" width="33.7778" height="12.4444" rx="6.22222" transform="rotate(-15 8.81323 40.3926)" fill="#C8F1E3"/>
<path d="M50.8182 17.5669L35.5 9.56254C34.9903 9.29621 34.8639 8.62328 35.2421 8.19009L39.735 3.0445C40.1613 2.55636 40.9498 2.67371 41.2154 3.26482L41.618 4.16078C41.8024 4.57117 42.2644 4.77906 42.6938 4.64492L47.2761 3.21366C47.7303 3.07181 48.2156 3.31273 48.3772 3.76024L49.4939 6.853C49.6211 7.20525 49.9555 7.44 50.33 7.44H55.1132C55.7613 7.44 56.1915 8.1112 55.9209 8.70007L52.0376 17.1503C51.8252 17.6124 51.269 17.8025 50.8182 17.5669Z" fill="#6EDBB5"/>
</svg>
