<svg width="43" height="48" viewBox="0 0 43 48" fill="none" xmlns="http://www.w3.org/2000/svg">
<path d="M26.8316 7.51538L5.62617 13.1012C3.01654 13.7886 1.33415 16.3203 2.07347 18.9157C4.5334 27.5514 10.5607 39.7223 16.8575 38.0637C20.6259 37.071 21.7636 34.1171 21.91 31.8046C21.9295 31.4959 22.6074 31.2892 22.7875 31.5406C24.8184 34.3762 27.492 35.2624 29.2178 34.8078C36.4074 32.914 35.2538 20.2279 33.0758 11.0991C32.4175 8.33987 29.5747 6.79282 26.8316 7.51538Z" fill="white"/>
<circle cx="1.03175" cy="1.03175" r="1.03175" transform="matrix(-0.967014 0.254724 0.254724 0.967014 27.9507 11.8169)" fill="#464B53"/>
<path d="M25.2739 17.8569C24.5913 18.3035 22.8584 18.8133 21.3876 17.2802" stroke="#464B53" stroke-width="1.33333" stroke-linecap="round"/>
<circle cx="1.03175" cy="1.03175" r="1.03175" transform="matrix(-0.967014 0.254724 0.254724 0.967014 23.4609 12.9995)" fill="#464B53"/>
<path d="M8.33585 2.59742C13.3155 3.35178 20.2423 2.07841 23.1649 0.981414C25.0794 0.262769 26.8748 3.01439 24.713 4.82674C21.3269 7.66553 10.2699 9.93987 6.53302 8.96125C2.7961 7.98262 2.4402 1.7043 8.33585 2.59742Z" fill="#6EDBB5"/>
</svg>
