<svg width="41" height="40" viewBox="0 0 41 40" fill="none" xmlns="http://www.w3.org/2000/svg">
<g clip-path="url(#clip0_527_1682)">
<path d="M19.8213 15.7537C12.0305 16.4154 6.91837 11.1755 4.86037 7.74661C4.66863 7.42715 4.16031 7.48543 4.06753 7.84627L-1.46167 29.3511C-1.48634 29.4471 -1.47352 29.5512 -1.42659 29.6384C3.87768 39.4993 17.0041 37.2196 23 27.0002C25.2016 23.2478 32.4637 21.8311 37.7786 21.9688C38.2708 21.9816 38.7738 20.5535 38.3331 20.334C33.3499 17.8518 26.1301 15.2179 19.8213 15.7537Z" fill="#464B53"/>
<path d="M20 2.99992C22 6.59992 26.8334 8.49992 29 8.99992C32.5001 10.2775 31 13.4999 29 11.9999C27.0001 10.4999 21.5 11.4999 17 7.99992C12.5 4.49992 17.5 -1.50008 20 2.99992Z" fill="#747D8A"/>
<circle cx="31" cy="31" r="3" fill="#ACB3BC"/>
</g>
<defs>
<clipPath id="clip0_527_1682">
<rect width="40" height="40" fill="white" transform="translate(0.5)"/>
</clipPath>
</defs>
</svg>
