<svg width="301" height="100" viewBox="0 0 301 100" fill="none" xmlns="http://www.w3.org/2000/svg">
<path d="M227.602 43.8884L220.274 38.0837C219.449 37.4298 219.911 36.1016 220.964 36.1016H235.619C236.672 36.1016 237.135 37.4298 236.309 38.0837L228.982 43.8884C228.577 44.2086 228.006 44.2086 227.602 43.8884Z" fill="#C8F1E3"/>
<path d="M240.751 43.8884L233.424 38.0837C232.598 37.4298 233.061 36.1016 234.114 36.1016H248.769C249.822 36.1016 250.284 37.4298 249.459 38.0837L242.131 43.8884C241.727 44.2086 241.155 44.2086 240.751 43.8884Z" fill="#C8F1E3"/>
<path d="M253.901 43.8884L246.573 38.0837C245.748 37.4298 246.21 36.1016 247.263 36.1016H261.918C262.971 36.1016 263.434 37.4298 262.608 38.0837L255.281 43.8884C254.876 44.2086 254.305 44.2086 253.901 43.8884Z" fill="#C8F1E3"/>
<path d="M246.982 44.991L239.655 50.7957C238.829 51.4496 239.292 52.7778 240.345 52.7778H255C256.053 52.7778 256.515 51.4496 255.69 50.7957L248.362 44.991C247.958 44.6708 247.387 44.6708 246.982 44.991Z" fill="#C8F1E3"/>
<path d="M260.132 44.991L252.804 50.7957C251.979 51.4496 252.441 52.7778 253.494 52.7778H268.15C269.203 52.7778 269.665 51.4496 268.84 50.7957L261.512 44.991C261.108 44.6708 260.536 44.6708 260.132 44.991Z" fill="#C8F1E3"/>
<path d="M276.312 15.2683H217.692C214.731 15.2683 208.929 17.6217 209.402 27.0353C209.876 36.4489 216.705 38.41 220.06 38.2139H268.022C268.022 45.2741 261.999 62.3195 259.732 68.808C256.597 77.7822 242.014 99.9905 259.732 99.9905C281.081 99.9905 289.931 47.0391 289.931 31.1537C289.931 18.4454 280.851 15.2683 276.312 15.2683Z" fill="white"/>
<ellipse cx="2.79727" cy="2.7795" rx="2.79727" ry="2.7795" transform="matrix(0.959198 0.282736 -0.286715 0.958016 254.024 22.2222)" fill="#6EDBB5"/>
<rect x="223.264" y="49.9905" width="52.7778" height="19.4444" rx="9.72222" fill="white"/>
<path d="M289.322 34.0242L255.362 16.0835C254.573 15.6664 254.376 14.6234 254.96 13.9476L265.583 1.64759C266.248 0.87692 267.49 1.06078 267.903 1.99132L269.288 5.10649C269.575 5.75239 270.301 6.07968 270.975 5.86683L281.71 2.47686C282.422 2.25191 283.185 2.63067 283.436 3.33414L286.129 10.8743C286.327 11.4271 286.85 11.7961 287.437 11.7961H298.885C299.895 11.7961 300.567 12.8401 300.149 13.7597L291.235 33.3709C290.904 34.0988 290.029 34.3977 289.322 34.0242Z" fill="#2AA87C"/>
<path d="M189.241 28.125H122.859C117.251 28.125 112.514 32.3055 112.5 37.914C112.443 61.7344 119.774 100 138.281 100C149.648 100 154.654 92.2246 156.36 86.1569C156.534 85.5389 157.875 85.4791 158.084 86.0861C161.342 95.5464 168.142 100 173.231 100C194.371 100 199.785 63.8428 199.994 38.6413C200.043 32.7379 195.144 28.125 189.241 28.125Z" fill="white"/>
<circle cx="2.77778" cy="2.77778" r="2.77778" transform="matrix(-1 0 0 1 186.111 38.8889)" fill="#6EDBB5"/>
<path d="M175 52.7778C172.917 53.4723 168.056 53.6111 165.278 48.6111" stroke="#6EDBB5" stroke-width="2.77778" stroke-linecap="round"/>
<circle cx="2.77778" cy="2.77778" r="2.77778" transform="matrix(-1 0 0 1 173.611 38.8889)" fill="#6EDBB5"/>
<path d="M141.624 1.48068C153.883 7.03046 172.503 8.51116 180.738 7.63235C186.132 7.05664 188.877 15.7182 182.11 19.0569C171.511 24.2864 141.624 22.5721 132.703 17.2993C123.782 12.0264 127.11 -5.08993 141.624 1.48068Z" fill="#2AA87C"/>
<circle cx="50" cy="50" r="50" fill="white"/>
<circle cx="2.77778" cy="2.77778" r="2.77778" transform="matrix(-1 0 0 1 59.7222 43.0555)" fill="#6EDBB5"/>
<circle cx="2.77778" cy="2.77778" r="2.77778" transform="matrix(-1 0 0 1 47.2222 43.0555)" fill="#6EDBB5"/>
<ellipse cx="50.6945" cy="55.5555" rx="3.47222" ry="4.16667" fill="#6EDBB5"/>
<path d="M14.0423 28.3651C15.1534 20.0317 25.6164 14.7077 30.709 13.0873C39.7368 10.3095 33.4868 17.9484 27.2368 24.1984C20.9868 30.4484 12.6534 38.7817 14.0423 28.3651Z" fill="#6EDBB5"/>
</svg>
